<mxfile host="app.diagrams.net" agent="Mozilla/5.0 (Windows NT 10.0; Win64; x64) AppleWebKit/537.36 (KHTML, like Gecko) Chrome/130.0.0.0 Safari/537.36" version="24.8.4">
  <diagram name="ページ1" id="rWOm7wTtB1lwXQG9iiKH">
    <mxGraphModel dx="1366" dy="752" grid="1" gridSize="10" guides="1" tooltips="1" connect="1" arrows="1" fold="1" page="1" pageScale="1" pageWidth="5000" pageHeight="5000" math="0" shadow="0">
      <root>
        <mxCell id="0" />
        <mxCell id="1" parent="0" />
        <mxCell id="iLSsixgJdg_JlFmPXbRB-1" value="" style="rounded=0;whiteSpace=wrap;html=1;fillColor=none;movable=1;resizable=1;rotatable=1;deletable=1;editable=1;locked=0;connectable=1;" parent="1" vertex="1">
          <mxGeometry x="40" y="590" width="720" height="640" as="geometry" />
        </mxCell>
        <mxCell id="iLSsixgJdg_JlFmPXbRB-2" value="ログインシステム" style="text;strokeColor=none;align=center;fillColor=none;html=1;verticalAlign=middle;whiteSpace=wrap;rounded=0;movable=1;resizable=1;rotatable=1;deletable=1;editable=1;locked=0;connectable=1;" parent="1" vertex="1">
          <mxGeometry x="40" y="560" width="110" height="30" as="geometry" />
        </mxCell>
        <mxCell id="iPuNW4YFl0-1NubFkKbN-21" value="" style="rounded=0;whiteSpace=wrap;html=1;movable=1;resizable=1;rotatable=1;deletable=1;editable=1;locked=0;connectable=1;" vertex="1" parent="1">
          <mxGeometry x="80" y="630" width="640" height="321" as="geometry" />
        </mxCell>
        <mxCell id="iPuNW4YFl0-1NubFkKbN-22" value="&lt;span style=&quot;font-size: 24px;&quot;&gt;Login&lt;/span&gt;" style="text;strokeColor=none;align=center;fillColor=none;html=1;verticalAlign=middle;whiteSpace=wrap;rounded=0;movable=1;resizable=1;rotatable=1;deletable=1;editable=1;locked=0;connectable=1;" vertex="1" parent="1">
          <mxGeometry x="320" y="650" width="160" height="30" as="geometry" />
        </mxCell>
        <mxCell id="iPuNW4YFl0-1NubFkKbN-23" value="送信" style="rounded=1;whiteSpace=wrap;html=1;movable=1;resizable=1;rotatable=1;deletable=1;editable=1;locked=0;connectable=1;" vertex="1" parent="1">
          <mxGeometry x="440" y="890" width="60" height="20" as="geometry" />
        </mxCell>
        <mxCell id="iPuNW4YFl0-1NubFkKbN-24" value="" style="rounded=1;whiteSpace=wrap;html=1;movable=1;resizable=1;rotatable=1;deletable=1;editable=1;locked=0;connectable=1;" vertex="1" parent="1">
          <mxGeometry x="310" y="740" width="190" height="20.5" as="geometry" />
        </mxCell>
        <mxCell id="iPuNW4YFl0-1NubFkKbN-26" style="edgeStyle=orthogonalEdgeStyle;rounded=0;orthogonalLoop=1;jettySize=auto;html=1;exitX=0.5;exitY=1;exitDx=0;exitDy=0;movable=1;resizable=1;rotatable=1;deletable=1;editable=1;locked=0;connectable=1;" edge="1" parent="1" source="iPuNW4YFl0-1NubFkKbN-23" target="iPuNW4YFl0-1NubFkKbN-23">
          <mxGeometry relative="1" as="geometry" />
        </mxCell>
        <mxCell id="iPuNW4YFl0-1NubFkKbN-27" value="従業員コード" style="text;strokeColor=none;align=center;fillColor=none;html=1;verticalAlign=middle;whiteSpace=wrap;rounded=0;movable=1;resizable=1;rotatable=1;deletable=1;editable=1;locked=0;connectable=1;" vertex="1" parent="1">
          <mxGeometry x="310" y="710" width="80" height="30" as="geometry" />
        </mxCell>
        <mxCell id="iPuNW4YFl0-1NubFkKbN-28" value="" style="rounded=1;whiteSpace=wrap;html=1;movable=1;resizable=1;rotatable=1;deletable=1;editable=1;locked=0;connectable=1;" vertex="1" parent="1">
          <mxGeometry x="310" y="795.25" width="190" height="20.5" as="geometry" />
        </mxCell>
        <mxCell id="iPuNW4YFl0-1NubFkKbN-29" value="従業員名" style="text;strokeColor=none;align=center;fillColor=none;html=1;verticalAlign=middle;whiteSpace=wrap;rounded=0;movable=1;resizable=1;rotatable=1;deletable=1;editable=1;locked=0;connectable=1;" vertex="1" parent="1">
          <mxGeometry x="310" y="765.25" width="60" height="30" as="geometry" />
        </mxCell>
        <mxCell id="iPuNW4YFl0-1NubFkKbN-30" value="" style="rounded=1;whiteSpace=wrap;html=1;movable=1;resizable=1;rotatable=1;deletable=1;editable=1;locked=0;connectable=1;" vertex="1" parent="1">
          <mxGeometry x="310" y="849.5" width="190" height="20.5" as="geometry" />
        </mxCell>
        <mxCell id="iPuNW4YFl0-1NubFkKbN-31" value="パスワード" style="text;strokeColor=none;align=center;fillColor=none;html=1;verticalAlign=middle;whiteSpace=wrap;rounded=0;movable=1;resizable=1;rotatable=1;deletable=1;editable=1;locked=0;connectable=1;" vertex="1" parent="1">
          <mxGeometry x="310" y="819.5" width="70" height="30" as="geometry" />
        </mxCell>
        <mxCell id="iPuNW4YFl0-1NubFkKbN-32" value="/employee/login" style="text;strokeColor=none;align=center;fillColor=none;html=1;verticalAlign=middle;whiteSpace=wrap;rounded=0;movable=1;resizable=1;rotatable=1;deletable=1;editable=1;locked=0;connectable=1;" vertex="1" parent="1">
          <mxGeometry x="80" y="600" width="100" height="30" as="geometry" />
        </mxCell>
        <mxCell id="iPuNW4YFl0-1NubFkKbN-75" value="補足" style="shape=table;startSize=30;container=1;collapsible=0;childLayout=tableLayout;movable=1;resizable=1;rotatable=1;deletable=1;editable=1;locked=0;connectable=1;" vertex="1" parent="1">
          <mxGeometry x="80" y="960" width="640" height="230" as="geometry" />
        </mxCell>
        <mxCell id="iPuNW4YFl0-1NubFkKbN-106" style="shape=tableRow;horizontal=0;startSize=0;swimlaneHead=0;swimlaneBody=0;strokeColor=inherit;top=0;left=0;bottom=0;right=0;collapsible=0;dropTarget=0;fillColor=none;points=[[0,0.5],[1,0.5]];portConstraint=eastwest;movable=1;resizable=1;rotatable=1;deletable=1;editable=1;locked=0;connectable=1;" vertex="1" parent="iPuNW4YFl0-1NubFkKbN-75">
          <mxGeometry y="30" width="640" height="40" as="geometry" />
        </mxCell>
        <mxCell id="iPuNW4YFl0-1NubFkKbN-107" value="通信方式" style="shape=partialRectangle;html=1;whiteSpace=wrap;connectable=1;strokeColor=inherit;overflow=hidden;fillColor=none;top=0;left=0;bottom=0;right=0;pointerEvents=1;movable=1;resizable=1;rotatable=1;deletable=1;editable=1;locked=0;" vertex="1" parent="iPuNW4YFl0-1NubFkKbN-106">
          <mxGeometry width="120" height="40" as="geometry">
            <mxRectangle width="120" height="40" as="alternateBounds" />
          </mxGeometry>
        </mxCell>
        <mxCell id="iPuNW4YFl0-1NubFkKbN-108" value="GET通信" style="shape=partialRectangle;html=1;whiteSpace=wrap;connectable=1;strokeColor=inherit;overflow=hidden;fillColor=none;top=0;left=0;bottom=0;right=0;pointerEvents=1;align=left;movable=1;resizable=1;rotatable=1;deletable=1;editable=1;locked=0;" vertex="1" parent="iPuNW4YFl0-1NubFkKbN-106">
          <mxGeometry x="120" width="520" height="40" as="geometry">
            <mxRectangle width="520" height="40" as="alternateBounds" />
          </mxGeometry>
        </mxCell>
        <mxCell id="iPuNW4YFl0-1NubFkKbN-76" value="" style="shape=tableRow;horizontal=0;startSize=0;swimlaneHead=0;swimlaneBody=0;strokeColor=inherit;top=0;left=0;bottom=0;right=0;collapsible=0;dropTarget=0;fillColor=none;points=[[0,0.5],[1,0.5]];portConstraint=eastwest;movable=1;resizable=1;rotatable=1;deletable=1;editable=1;locked=0;connectable=1;" vertex="1" parent="iPuNW4YFl0-1NubFkKbN-75">
          <mxGeometry y="70" width="640" height="40" as="geometry" />
        </mxCell>
        <mxCell id="iPuNW4YFl0-1NubFkKbN-77" value="従業員コード" style="shape=partialRectangle;html=1;whiteSpace=wrap;connectable=1;strokeColor=inherit;overflow=hidden;fillColor=none;top=0;left=0;bottom=0;right=0;pointerEvents=1;movable=1;resizable=1;rotatable=1;deletable=1;editable=1;locked=0;" vertex="1" parent="iPuNW4YFl0-1NubFkKbN-76">
          <mxGeometry width="120" height="40" as="geometry">
            <mxRectangle width="120" height="40" as="alternateBounds" />
          </mxGeometry>
        </mxCell>
        <mxCell id="iPuNW4YFl0-1NubFkKbN-78" value="６桁の文字列" style="shape=partialRectangle;html=1;whiteSpace=wrap;connectable=1;strokeColor=inherit;overflow=hidden;fillColor=none;top=0;left=0;bottom=0;right=0;pointerEvents=1;align=left;movable=1;resizable=1;rotatable=1;deletable=1;editable=1;locked=0;" vertex="1" parent="iPuNW4YFl0-1NubFkKbN-76">
          <mxGeometry x="120" width="520" height="40" as="geometry">
            <mxRectangle width="520" height="40" as="alternateBounds" />
          </mxGeometry>
        </mxCell>
        <mxCell id="iPuNW4YFl0-1NubFkKbN-79" value="" style="shape=tableRow;horizontal=0;startSize=0;swimlaneHead=0;swimlaneBody=0;strokeColor=inherit;top=0;left=0;bottom=0;right=0;collapsible=0;dropTarget=0;fillColor=none;points=[[0,0.5],[1,0.5]];portConstraint=eastwest;movable=1;resizable=1;rotatable=1;deletable=1;editable=1;locked=0;connectable=1;" vertex="1" parent="iPuNW4YFl0-1NubFkKbN-75">
          <mxGeometry y="110" width="640" height="40" as="geometry" />
        </mxCell>
        <mxCell id="iPuNW4YFl0-1NubFkKbN-80" value="従業員名" style="shape=partialRectangle;html=1;whiteSpace=wrap;connectable=1;strokeColor=inherit;overflow=hidden;fillColor=none;top=0;left=0;bottom=0;right=0;pointerEvents=1;movable=1;resizable=1;rotatable=1;deletable=1;editable=1;locked=0;" vertex="1" parent="iPuNW4YFl0-1NubFkKbN-79">
          <mxGeometry width="120" height="40" as="geometry">
            <mxRectangle width="120" height="40" as="alternateBounds" />
          </mxGeometry>
        </mxCell>
        <mxCell id="iPuNW4YFl0-1NubFkKbN-81" value="1桁以上30桁以下の文字列" style="shape=partialRectangle;html=1;whiteSpace=wrap;connectable=1;strokeColor=inherit;overflow=hidden;fillColor=none;top=0;left=0;bottom=0;right=0;pointerEvents=1;align=left;movable=1;resizable=1;rotatable=1;deletable=1;editable=1;locked=0;" vertex="1" parent="iPuNW4YFl0-1NubFkKbN-79">
          <mxGeometry x="120" width="520" height="40" as="geometry">
            <mxRectangle width="520" height="40" as="alternateBounds" />
          </mxGeometry>
        </mxCell>
        <mxCell id="iPuNW4YFl0-1NubFkKbN-82" value="" style="shape=tableRow;horizontal=0;startSize=0;swimlaneHead=0;swimlaneBody=0;strokeColor=inherit;top=0;left=0;bottom=0;right=0;collapsible=0;dropTarget=0;fillColor=none;points=[[0,0.5],[1,0.5]];portConstraint=eastwest;movable=1;resizable=1;rotatable=1;deletable=1;editable=1;locked=0;connectable=1;" vertex="1" parent="iPuNW4YFl0-1NubFkKbN-75">
          <mxGeometry y="150" width="640" height="40" as="geometry" />
        </mxCell>
        <mxCell id="iPuNW4YFl0-1NubFkKbN-83" value="パスワード" style="shape=partialRectangle;html=1;whiteSpace=wrap;connectable=1;strokeColor=inherit;overflow=hidden;fillColor=none;top=0;left=0;bottom=0;right=0;pointerEvents=1;movable=1;resizable=1;rotatable=1;deletable=1;editable=1;locked=0;" vertex="1" parent="iPuNW4YFl0-1NubFkKbN-82">
          <mxGeometry width="120" height="40" as="geometry">
            <mxRectangle width="120" height="40" as="alternateBounds" />
          </mxGeometry>
        </mxCell>
        <mxCell id="iPuNW4YFl0-1NubFkKbN-84" value="6桁以上24桁以下の文字列(大文字、小文字の両方を含む英数字)" style="shape=partialRectangle;html=1;whiteSpace=wrap;connectable=1;strokeColor=inherit;overflow=hidden;fillColor=none;top=0;left=0;bottom=0;right=0;pointerEvents=1;align=left;movable=1;resizable=1;rotatable=1;deletable=1;editable=1;locked=0;" vertex="1" parent="iPuNW4YFl0-1NubFkKbN-82">
          <mxGeometry x="120" width="520" height="40" as="geometry">
            <mxRectangle width="520" height="40" as="alternateBounds" />
          </mxGeometry>
        </mxCell>
        <mxCell id="iPuNW4YFl0-1NubFkKbN-85" value="" style="shape=tableRow;horizontal=0;startSize=0;swimlaneHead=0;swimlaneBody=0;strokeColor=inherit;top=0;left=0;bottom=0;right=0;collapsible=0;dropTarget=0;fillColor=none;points=[[0,0.5],[1,0.5]];portConstraint=eastwest;movable=1;resizable=1;rotatable=1;deletable=1;editable=1;locked=0;connectable=1;" vertex="1" parent="iPuNW4YFl0-1NubFkKbN-75">
          <mxGeometry y="190" width="640" height="40" as="geometry" />
        </mxCell>
        <mxCell id="iPuNW4YFl0-1NubFkKbN-86" value="送信" style="shape=partialRectangle;html=1;whiteSpace=wrap;connectable=1;strokeColor=inherit;overflow=hidden;fillColor=none;top=0;left=0;bottom=0;right=0;pointerEvents=1;movable=1;resizable=1;rotatable=1;deletable=1;editable=1;locked=0;" vertex="1" parent="iPuNW4YFl0-1NubFkKbN-85">
          <mxGeometry width="120" height="40" as="geometry">
            <mxRectangle width="120" height="40" as="alternateBounds" />
          </mxGeometry>
        </mxCell>
        <mxCell id="iPuNW4YFl0-1NubFkKbN-87" value="送信したら/employee/loginに上記の値を送信する" style="shape=partialRectangle;html=1;whiteSpace=wrap;connectable=1;strokeColor=inherit;overflow=hidden;fillColor=none;top=0;left=0;bottom=0;right=0;pointerEvents=1;align=left;movable=1;resizable=1;rotatable=1;deletable=1;editable=1;locked=0;" vertex="1" parent="iPuNW4YFl0-1NubFkKbN-85">
          <mxGeometry x="120" width="520" height="40" as="geometry">
            <mxRectangle width="520" height="40" as="alternateBounds" />
          </mxGeometry>
        </mxCell>
        <mxCell id="iPuNW4YFl0-1NubFkKbN-169" value="" style="rounded=0;whiteSpace=wrap;html=1;fillColor=none;movable=1;resizable=1;rotatable=1;deletable=1;editable=1;locked=0;connectable=1;" vertex="1" parent="1">
          <mxGeometry x="40" y="80" width="560" height="440" as="geometry" />
        </mxCell>
        <mxCell id="iPuNW4YFl0-1NubFkKbN-171" value="画面遷移" style="text;strokeColor=none;align=center;fillColor=none;html=1;verticalAlign=middle;whiteSpace=wrap;rounded=0;movable=1;resizable=1;rotatable=1;deletable=1;editable=1;locked=0;connectable=1;" vertex="1" parent="1">
          <mxGeometry x="40" y="50" width="60" height="30" as="geometry" />
        </mxCell>
        <mxCell id="iPuNW4YFl0-1NubFkKbN-172" value="/employee/login" style="shape=table;startSize=30;container=1;collapsible=0;childLayout=tableLayout;" vertex="1" parent="1">
          <mxGeometry x="81" y="120" width="440" height="230" as="geometry" />
        </mxCell>
        <mxCell id="iPuNW4YFl0-1NubFkKbN-173" value="" style="shape=tableRow;horizontal=0;startSize=0;swimlaneHead=0;swimlaneBody=0;strokeColor=inherit;top=0;left=0;bottom=0;right=0;collapsible=0;dropTarget=0;fillColor=none;points=[[0,0.5],[1,0.5]];portConstraint=eastwest;" vertex="1" parent="iPuNW4YFl0-1NubFkKbN-172">
          <mxGeometry y="30" width="440" height="80" as="geometry" />
        </mxCell>
        <mxCell id="iPuNW4YFl0-1NubFkKbN-174" value="GET通信" style="shape=partialRectangle;html=1;whiteSpace=wrap;connectable=0;strokeColor=inherit;overflow=hidden;fillColor=none;top=0;left=0;bottom=0;right=0;pointerEvents=1;" vertex="1" parent="iPuNW4YFl0-1NubFkKbN-173">
          <mxGeometry width="120" height="80" as="geometry">
            <mxRectangle width="120" height="80" as="alternateBounds" />
          </mxGeometry>
        </mxCell>
        <mxCell id="iPuNW4YFl0-1NubFkKbN-175" value="ログインに必要な情報(従業員コード、従業員名、パスワード)を/employee/loginにPOST通信で送信する" style="shape=partialRectangle;html=1;whiteSpace=wrap;connectable=0;strokeColor=inherit;overflow=hidden;fillColor=none;top=0;left=0;bottom=0;right=0;pointerEvents=1;align=left;" vertex="1" parent="iPuNW4YFl0-1NubFkKbN-173">
          <mxGeometry x="120" width="320" height="80" as="geometry">
            <mxRectangle width="320" height="80" as="alternateBounds" />
          </mxGeometry>
        </mxCell>
        <mxCell id="iPuNW4YFl0-1NubFkKbN-176" value="" style="shape=tableRow;horizontal=0;startSize=0;swimlaneHead=0;swimlaneBody=0;strokeColor=inherit;top=0;left=0;bottom=0;right=0;collapsible=0;dropTarget=0;fillColor=none;points=[[0,0.5],[1,0.5]];portConstraint=eastwest;" vertex="1" parent="iPuNW4YFl0-1NubFkKbN-172">
          <mxGeometry y="110" width="440" height="120" as="geometry" />
        </mxCell>
        <mxCell id="iPuNW4YFl0-1NubFkKbN-177" value="POST通信" style="shape=partialRectangle;html=1;whiteSpace=wrap;connectable=0;strokeColor=inherit;overflow=hidden;fillColor=none;top=0;left=0;bottom=0;right=0;pointerEvents=1;" vertex="1" parent="iPuNW4YFl0-1NubFkKbN-176">
          <mxGeometry width="120" height="120" as="geometry">
            <mxRectangle width="120" height="120" as="alternateBounds" />
          </mxGeometry>
        </mxCell>
        <mxCell id="iPuNW4YFl0-1NubFkKbN-178" value="GET通信から送信された情報をもとにログインが成功か失敗かを判断し成功した場合のみ/employee/menuに画面を遷移させる" style="shape=partialRectangle;html=1;whiteSpace=wrap;connectable=0;strokeColor=inherit;overflow=hidden;fillColor=none;top=0;left=0;bottom=0;right=0;pointerEvents=1;align=left;" vertex="1" parent="iPuNW4YFl0-1NubFkKbN-176">
          <mxGeometry x="120" width="320" height="120" as="geometry">
            <mxRectangle width="320" height="120" as="alternateBounds" />
          </mxGeometry>
        </mxCell>
        <mxCell id="iPuNW4YFl0-1NubFkKbN-181" value="" style="edgeStyle=orthogonalEdgeStyle;rounded=0;orthogonalLoop=1;jettySize=auto;html=1;" edge="1" parent="1" source="iPuNW4YFl0-1NubFkKbN-179" target="iPuNW4YFl0-1NubFkKbN-180">
          <mxGeometry relative="1" as="geometry" />
        </mxCell>
        <mxCell id="iPuNW4YFl0-1NubFkKbN-179" value="/employee/login" style="rounded=0;whiteSpace=wrap;html=1;" vertex="1" parent="1">
          <mxGeometry x="81" y="400" width="120" height="40" as="geometry" />
        </mxCell>
        <mxCell id="iPuNW4YFl0-1NubFkKbN-180" value="/employee/login" style="rounded=0;whiteSpace=wrap;html=1;" vertex="1" parent="1">
          <mxGeometry x="430" y="400" width="120" height="40" as="geometry" />
        </mxCell>
        <mxCell id="iPuNW4YFl0-1NubFkKbN-185" style="edgeStyle=orthogonalEdgeStyle;rounded=0;orthogonalLoop=1;jettySize=auto;html=1;" edge="1" parent="1" source="iPuNW4YFl0-1NubFkKbN-182">
          <mxGeometry relative="1" as="geometry">
            <mxPoint x="140" y="440" as="targetPoint" />
            <Array as="points">
              <mxPoint x="301" y="480" />
              <mxPoint x="140" y="480" />
            </Array>
          </mxGeometry>
        </mxCell>
        <mxCell id="iPuNW4YFl0-1NubFkKbN-182" value="ログイン" style="html=1;whiteSpace=wrap;aspect=fixed;shape=isoRectangle;" vertex="1" parent="1">
          <mxGeometry x="264" y="397.8" width="74" height="44.4" as="geometry" />
        </mxCell>
        <mxCell id="iPuNW4YFl0-1NubFkKbN-183" value="成功" style="text;strokeColor=none;align=center;fillColor=none;html=1;verticalAlign=middle;whiteSpace=wrap;rounded=0;" vertex="1" parent="1">
          <mxGeometry x="330" y="390" width="60" height="30" as="geometry" />
        </mxCell>
        <mxCell id="iPuNW4YFl0-1NubFkKbN-184" value="失敗" style="text;strokeColor=none;align=center;fillColor=none;html=1;verticalAlign=middle;whiteSpace=wrap;rounded=0;" vertex="1" parent="1">
          <mxGeometry x="300" y="440" width="60" height="30" as="geometry" />
        </mxCell>
      </root>
    </mxGraphModel>
  </diagram>
</mxfile>
